<svg width="1200" height="630" viewBox="0 0 1200 630" fill="none" xmlns="http://www.w3.org/2000/svg">
  <rect width="1200" height="630" fill="#06080E"/>
  <rect width="1200" height="630" fill="url(#paint0_radial)"/>
  <rect width="1200" height="630" fill="url(#paint1_radial)"/>
  <rect width="1200" height="630" fill="url(#paint2_linear)"/>

  <g opacity="0.18">
    <path d="M0 78H1200" stroke="#FFFFFF" stroke-opacity="0.08"/>
    <path d="M0 150H1200" stroke="#FFFFFF" stroke-opacity="0.08"/>
    <path d="M0 222H1200" stroke="#FFFFFF" stroke-opacity="0.08"/>
    <path d="M0 294H1200" stroke="#FFFFFF" stroke-opacity="0.08"/>
    <path d="M0 366H1200" stroke="#FFFFFF" stroke-opacity="0.08"/>
    <path d="M0 438H1200" stroke="#FFFFFF" stroke-opacity="0.08"/>
    <path d="M0 510H1200" stroke="#FFFFFF" stroke-opacity="0.08"/>
    <path d="M0 582H1200" stroke="#FFFFFF" stroke-opacity="0.08"/>
    <path d="M94 0V630" stroke="#FFFFFF" stroke-opacity="0.08"/>
    <path d="M166 0V630" stroke="#FFFFFF" stroke-opacity="0.08"/>
    <path d="M238 0V630" stroke="#FFFFFF" stroke-opacity="0.08"/>
    <path d="M310 0V630" stroke="#FFFFFF" stroke-opacity="0.08"/>
    <path d="M382 0V630" stroke="#FFFFFF" stroke-opacity="0.08"/>
    <path d="M454 0V630" stroke="#FFFFFF" stroke-opacity="0.08"/>
    <path d="M526 0V630" stroke="#FFFFFF" stroke-opacity="0.08"/>
    <path d="M598 0V630" stroke="#FFFFFF" stroke-opacity="0.08"/>
    <path d="M670 0V630" stroke="#FFFFFF" stroke-opacity="0.08"/>
    <path d="M742 0V630" stroke="#FFFFFF" stroke-opacity="0.08"/>
    <path d="M814 0V630" stroke="#FFFFFF" stroke-opacity="0.08"/>
    <path d="M886 0V630" stroke="#FFFFFF" stroke-opacity="0.08"/>
    <path d="M958 0V630" stroke="#FFFFFF" stroke-opacity="0.08"/>
    <path d="M1030 0V630" stroke="#FFFFFF" stroke-opacity="0.08"/>
    <path d="M1102 0V630" stroke="#FFFFFF" stroke-opacity="0.08"/>
  </g>

  <circle cx="106" cy="95" r="7" fill="#F59E0B"/>
  <text
    x="132"
    y="104"
    fill="#F59E0B"
    font-family="Menlo, Monaco, Consolas, monospace"
    font-size="24"
    font-weight="700"
    letter-spacing="0.2em"
  >
    SUPERMANAGER
  </text>

  <text x="88" y="200" fill="#ECF2FF" font-family="Arial, Helvetica, sans-serif" font-size="78" font-weight="700">
    Turn AI coding
  </text>
  <text x="88" y="282" fill="#ECF2FF" font-family="Arial, Helvetica, sans-serif" font-size="78" font-weight="700">
    sessions into
  </text>
  <text x="88" y="364" fill="#ECF2FF" font-family="Arial, Helvetica, sans-serif" font-size="78" font-weight="700">
    team context.
  </text>

  <text x="92" y="460" fill="#8E9BB6" font-family="Arial, Helvetica, sans-serif" font-size="24">
    Supermanager turns Claude Code and Codex activity
  </text>
  <text x="92" y="492" fill="#8E9BB6" font-family="Arial, Helvetica, sans-serif" font-size="24">
    into a private shared workspace with live project feeds,
  </text>
  <text x="92" y="524" fill="#8E9BB6" font-family="Arial, Helvetica, sans-serif" font-size="24">
    fast summaries, and durable team memory.
  </text>

  <defs>
    <radialGradient id="paint0_radial" cx="0" cy="0" r="1" gradientUnits="userSpaceOnUse" gradientTransform="translate(248 82) rotate(56.1743) scale(430.432 637.768)">
      <stop stop-color="#F59E0B" stop-opacity="0.18"/>
      <stop offset="1" stop-color="#F59E0B" stop-opacity="0"/>
    </radialGradient>
    <radialGradient id="paint1_radial" cx="0" cy="0" r="1" gradientUnits="userSpaceOnUse" gradientTransform="translate(1048 520) rotate(-147.839) scale(389.491 301.946)">
      <stop stop-color="#1876D2" stop-opacity="0.2"/>
      <stop offset="1" stop-color="#1876D2" stop-opacity="0"/>
    </radialGradient>
    <linearGradient id="paint2_linear" x1="600" y1="0" x2="600" y2="630" gradientUnits="userSpaceOnUse">
      <stop stop-color="#0A0E16" stop-opacity="0"/>
      <stop offset="0.7" stop-color="#06080E" stop-opacity="0.15"/>
      <stop offset="1" stop-color="#06080E" stop-opacity="0.28"/>
    </linearGradient>
  </defs>
</svg>
